PathFileType	4	(x/y/z)	S05_PSF_T02
DataRate	CameraRate	NumFrames	NumMarkers	Units	OrigDataRate	OrigDataStartFrame	OrigNumFrames
240	240	10	50	mm	240	222	442
Frame#	Time	Sternum			R.Acromium			L.Acromium			Top.Head			R.ASIS			L.ASIS			R.PSIS			L.PSIS			R.Great.Tro			L.Great.Tro			R.Iliac.Crest			L.Iliac.Crest			V.Sacral			R.Thigh.Upper.Post			R.Thigh.Lower.Ant			R.Thigh.Lower.Post			R.Thigh.Upper.Ant			R.Knee.Lat			R.Knee.Med			R.Shank.Upper.Post			R.Shank.Lower.Ant			R.Shank.Lower.Post			R.Shank.Upper.Ant			R.Ankle.Lat			R.Ankle.Med			R.Heel.Upper			R.Heel.Med			R.Heel.Lat			R.Toe.Lat			R.Toe.Med			R.Toe.Tip			L.Thigh.Upper.Post			L.Thigh.Lower.Ant			L.Thigh.Lower.Post			L.Thigh.Upper.Ant			L.Knee.Lat			L.Shank.Upper.Post			L.Shank.Lower.Ant			L.Shank.Lower.Post			L.Shank.Upper.Ant			L.Ankle.Lat			L.Ankle.Med			L.Heel.Upper			L.Heel.Med			L.Heel.Lat			L.Toe.Lat			L.Toe.Med			L.Toe.Tip			Cervical.Spine			Back			
		X1	Y1	Z1	X2	Y2	Z2	X3	Y3	Z3	X4	Y4	Z4	X5	Y5	Z5	X6	Y6	Z6	X7	Y7	Z7	X8	Y8	Z8	X9	Y9	Z9	X10	Y10	Z10	X11	Y11	Z11	X12	Y12	Z12	X13	Y13	Z13	X14	Y14	Z14	X15	Y15	Z15	X16	Y16	Z16	X17	Y17	Z17	X18	Y18	Z18	X19	Y19	Z19	X20	Y20	Z20	X21	Y21	Z21	X22	Y22	Z22	X23	Y23	Z23	X24	Y24	Z24	X25	Y25	Z25	X26	Y26	Z26	X27	Y27	Z27	X28	Y28	Z28	X29	Y29	Z29	X30	Y30	Z30	X31	Y31	Z31	X32	Y32	Z32	X33	Y33	Z33	X34	Y34	Z34	X35	Y35	Z35	X36	Y36	Z36	X37	Y37	Z37	X38	Y38	Z38	X39	Y39	Z39	X40	Y40	Z40	X41	Y41	Z41	X42	Y42	Z42	X43	Y43	Z43	X44	Y44	Z44	X45	Y45	Z45	X46	Y46	Z46	X47	Y47	Z47	X48	Y48	Z48	X49	Y49	Z49	X50	Y50	Z50	

222	0.92083	-324.21	1266.9	307.43	-404.1	1522.5	473.39	-427.12	1549.3	147.24	-405.38	1838.3	304.25	-389.91	1018.4	438.64	-387.37	1022.7	187.98	-589.85	1036	348.96	-587.6	1034.3	257.64	-469.34	933.82	496.43	-465.17	938.69	109.19	-479.44	1101	475.89	-479.41	1099.8	139.17	-602.11	1000.4	316.56	-405.93	713.62	481.43	-353.48	646.03	426.04	-417.43	627.11	455.93	-346.51	732.06	451.13	-419.1	530.62	433.52	-418.89	521.13	301.5	-499.72	291.11	418.2	-437.93	225	414.65	-501.04	216.45	398.86	-435.09	301.57	433.1	-454.19	120.99	392.86	-449.53	146.61	308.11	-526.75	74.22	330.79	-516.17	42.525	303.23	-519.01	46.472	368.33	-355.06	36.757	425.3	-317.21	41.273	305.78	-255	58.194	352.16	-388.82	711.43	103.4	-290.93	663.86	122.73	-350.89	623.99	113.64	-320.62	749.66	112.94	-327.43	542.95	119.39	-492.28	433.67	130.8	-478.67	346.07	130.93	-539.6	379.97	148.78	-435.7	401.28	117.65	-609.6	257.95	159.27	-567.27	247.33	242.13	-681.12	260.77	218.64	-685.63	236.39	252.73	-700	238.4	192.06	-575.22	113.48	127.81	-537.12	111.46	241.24	-487.76	77.561	183.27	-461.7	1575.8	318.09	-581.04	1304.7	314.42
223	0.925	-319.09	1267.4	307.57	-398.72	1523	473.49	-422.11	1549.7	147.35	-400.05	1838.6	304.24	-385.13	1018.5	439.08	-382.06	1023.3	188.4	-584.85	1036.4	348.84	-582.43	1034.7	257.51	-465	934.01	496.46	-459.39	939.46	109.22	-474.56	1101.3	476.04	-474.11	1100.4	139.33	-597.01	1000.7	316.35	-402.9	713.55	481.49	-350.62	645.66	426.37	-414.82	627.12	455.94	-343.21	731.63	451.49	-417.11	530.6	433.47	-416.46	521.12	301.4	-498.82	291.48	417.95	-437.37	225.1	414.43	-500.4	216.83	398.61	-434.14	301.65	432.99	-453.88	121.1	392.74	-449.09	146.73	307.97	-526.62	74.414	330.7	-516.18	42.63	303.12	-518.91	46.676	368.27	-355	36.706	425.31	-317.07	41.101	305.75	-254.84	57.83	352.17	-381.13	712.88	103.08	-282.89	666.17	122.82	-342.46	625.76	113.38	-313.32	751.7	113.02	-318.48	544.63	119.45	-481.64	432.34	130.97	-466.43	345.03	131	-527.9	377.74	148.95	-424.52	401.02	117.71	-595.57	254.35	159.36	-552.86	244.42	242.18	-667.22	255.5	218.87	-671.04	230.85	252.83	-685.61	232.8	192.27	-558.08	110.88	127.5	-519.81	109.41	240.87	-469.76	76.787	182.72	-456.45	1576.2	318.23	-575.83	1305.1	314.74
224	0.92917	-313.96	1267.8	307.72	-393.36	1523.5	473.57	-417.09	1550.1	147.46	-394.72	1838.9	304.2	-380.35	1018.6	439.5	-376.74	1023.9	188.8	-579.85	1036.7	348.71	-577.26	1035	257.37	-460.67	934.19	496.48	-453.63	940.19	109.25	-469.65	1101.6	476.19	-468.82	1100.9	139.49	-591.91	1001	316.15	-399.87	713.48	481.53	-347.76	645.29	426.67	-412.21	627.13	455.93	-339.93	731.2	451.84	-415.13	530.57	433.4	-414.03	521.09	301.3	-497.92	291.84	417.7	-436.79	225.21	414.2	-499.74	217.21	398.35	-433.2	301.73	432.87	-453.57	121.22	392.62	-448.65	146.86	307.82	-526.5	74.617	330.61	-516.2	42.738	303.01	-518.81	46.886	368.2	-354.94	36.661	425.31	-316.93	40.932	305.71	-254.69	57.469	352.19	-373.5	714.29	102.76	-274.93	668.39	122.9	-334.14	627.49	113.13	-306.08	753.67	113.09	-309.67	546.27	119.51	-471.04	430.87	131.12	-454.16	343.88	131.06	-516.19	375.36	149.11	-413.37	400.66	117.76	-581.41	250.6	159.44	-538.33	241.4	242.21	-653.15	250.05	219.09	-656.26	225.14	252.94	-671.03	227.03	192.49	-540.78	108.23	127.17	-502.33	107.33	240.49	-451.62	76.011	182.15	-451.21	1576.6	318.35	-570.64	1305.5	315.07
225	0.93333	-308.84	1268.3	307.85	-388.01	1523.9	473.65	-412.08	1550.4	147.56	-389.4	1839.2	304.14	-375.57	1018.7	439.9	-371.41	1024.4	189.18	-574.86	1037	348.58	-572.09	1035.3	257.23	-456.33	934.35	496.48	-447.88	940.87	109.26	-464.71	1101.8	476.33	-463.54	1101.4	139.63	-586.8	1001.3	315.94	-396.84	713.41	481.56	-344.9	644.91	426.96	-409.6	627.13	455.91	-336.64	730.77	452.16	-413.13	530.54	433.32	-411.62	521.06	301.19	-497.01	292.21	417.44	-436.21	225.32	413.97	-499.09	217.59	398.09	-432.25	301.81	432.73	-453.25	121.34	392.5	-448.2	147	307.67	-526.39	74.831	330.51	-516.24	42.853	302.89	-518.7	47.1	368.13	-354.88	36.622	425.32	-316.79	40.765	305.67	-254.54	57.112	352.19	-365.95	715.66	102.45	-267.08	670.54	122.97	-325.92	629.16	112.87	-298.91	755.57	113.16	-301	547.84	119.56	-460.47	429.26	131.26	-441.88	342.64	131.1	-504.45	372.84	149.25	-402.26	400.22	117.8	-567.13	246.72	159.52	-523.7	238.28	242.23	-638.91	244.44	219.31	-641.28	219.28	253.04	-656.26	221.11	192.71	-523.32	105.54	126.84	-484.69	105.23	240.08	-433.34	75.247	181.56	-445.97	1576.9	318.47	-565.46	1305.8	315.38
226	0.9375	-303.71	1268.6	307.99	-382.67	1524.3	473.73	-407.06	1550.6	147.65	-384.08	1839.5	304.06	-370.77	1018.8	440.28	-366.08	1024.9	189.53	-569.86	1037.2	348.45	-566.91	1035.5	257.08	-451.98	934.5	496.48	-442.14	941.5	109.28	-459.74	1102	476.46	-458.26	1101.8	139.76	-581.69	1001.5	315.72	-393.81	713.33	481.57	-342.04	644.52	427.22	-406.97	627.13	455.86	-333.36	730.33	452.46	-411.13	530.51	433.23	-409.21	521.02	301.07	-496.1	292.58	417.18	-435.61	225.44	413.74	-498.42	217.97	397.83	-431.31	301.9	432.58	-452.94	121.47	392.38	-447.75	147.14	307.5	-526.28	75.053	330.41	-516.28	42.974	302.77	-518.59	47.319	368.06	-354.82	36.589	425.32	-316.65	40.602	305.63	-254.39	56.76	352.2	-358.49	716.98	102.14	-259.32	672.61	123.03	-317.83	630.77	112.63	-291.81	757.39	113.21	-292.47	549.35	119.61	-449.94	427.52	131.39	-429.59	341.32	131.13	-492.7	370.2	149.39	-391.18	399.69	117.82	-552.72	242.73	159.58	-508.95	235.07	242.22	-624.5	238.68	219.52	-626.1	213.3	253.13	-641.31	215.04	192.92	-505.71	102.83	126.48	-466.89	103.12	239.66	-414.94	74.511	180.94	-440.73	1577.2	318.58	-560.29	1306.2	315.69
227	0.94167	-298.58	1268.9	308.11	-377.35	1524.7	473.79	-402.04	1550.9	147.74	-378.77	1839.7	303.96	-365.97	1018.8	440.63	-360.74	1025.3	189.86	-564.86	1037.4	348.31	-561.74	1035.7	256.92	-447.62	934.63	496.46	-436.41	942.08	109.28	-454.74	1102.2	476.57	-452.98	1102.1	139.89	-576.58	1001.7	315.51	-390.77	713.25	481.57	-339.18	644.13	427.46	-404.33	627.13	455.81	-330.09	729.89	452.74	-409.13	530.48	433.13	-406.82	520.97	300.95	-495.17	292.95	416.92	-434.99	225.55	413.52	-497.75	218.35	397.57	-430.36	301.98	432.41	-452.62	121.59	392.25	-447.3	147.28	307.33	-526.18	75.283	330.3	-516.32	43.103	302.65	-518.49	47.54	367.98	-354.77	36.561	425.32	-316.51	40.442	305.58	-254.25	56.414	352.21	-351.11	718.24	101.84	-251.67	674.58	123.09	-309.86	632.31	112.39	-284.77	759.13	113.26	-284.09	550.78	119.66	-439.43	425.64	131.5	-417.29	339.91	131.14	-480.93	367.42	149.52	-380.14	399.07	117.83	-538.19	238.64	159.63	-494.09	231.79	242.19	-609.91	232.78	219.71	-610.73	207.21	253.22	-626.16	208.85	193.12	-487.95	100.1	126.11	-448.94	101.03	239.22	-396.41	73.817	180.31	-435.5	1577.4	318.68	-555.13	1306.5	315.98
228	0.94583	-293.45	1269.2	308.24	-372.04	1525	473.85	-397.02	1551.1	147.82	-373.46	1839.9	303.83	-361.15	1018.8	440.95	-355.39	1025.7	190.16	-559.85	1037.6	348.17	-556.55	1035.9	256.76	-443.25	934.74	496.43	-430.7	942.6	109.27	-449.72	1102.3	476.67	-447.7	1102.5	140	-571.46	1001.8	315.29	-387.72	713.17	481.56	-336.31	643.73	427.66	-401.68	627.13	455.74	-326.8	729.44	452.99	-407.12	530.44	433.03	-404.44	520.91	300.81	-494.24	293.32	416.67	-434.37	225.67	413.29	-497.07	218.72	397.31	-429.41	302.06	432.22	-452.3	121.72	392.13	-446.83	147.43	307.15	-526.08	75.521	330.19	-516.36	43.24	302.53	-518.38	47.765	367.9	-354.71	36.536	425.31	-316.37	40.286	305.53	-254.1	56.074	352.21	-343.82	719.43	101.56	-244.13	676.45	123.15	-302.01	633.77	112.18	-277.82	760.77	113.31	-275.85	552.15	119.71	-428.95	423.64	131.6	-404.97	338.43	131.14	-469.13	364.53	149.64	-369.13	398.38	117.83	-523.54	234.45	159.67	-479.13	228.45	242.14	-595.14	226.77	219.88	-595.15	201.03	253.3	-610.81	202.54	193.31	-470.04	97.373	125.71	-430.83	98.96	238.75	-377.77	73.182	179.64	-430.27	1577.7	318.77	-549.97	1306.7	316.26
229	0.95	-288.32	1269.4	308.36	-366.75	1525.2	473.9	-391.99	1551.2	147.89	-368.16	1840.1	303.67	-356.32	1018.8	441.26	-350.04	1026.1	190.43	-554.84	1037.8	348.01	-551.37	1036	256.59	-438.87	934.84	496.39	-424.99	943.08	109.25	-444.67	1102.4	476.75	-442.42	1102.7	140.1	-566.34	1002	315.07	-384.67	713.09	481.53	-333.45	643.32	427.83	-399.02	627.12	455.65	-323.52	728.99	453.22	-405.11	530.41	432.91	-402.08	520.84	300.68	-493.29	293.69	416.43	-433.72	225.78	413.08	-496.39	219.1	397.06	-428.46	302.14	432.02	-451.99	121.85	392	-446.37	147.58	306.97	-525.99	75.763	330.07	-516.4	43.387	302.41	-518.27	47.993	367.81	-354.66	36.515	425.3	-316.24	40.133	305.49	-253.96	55.741	352.21	-336.62	720.56	101.3	-236.7	678.22	123.21	-294.29	635.16	111.98	-270.95	762.32	113.35	-267.77	553.43	119.76	-418.5	421.52	131.7	-392.64	336.88	131.12	-457.31	361.53	149.75	-358.17	397.61	117.81	-508.76	230.2	159.7	-464.06	225.06	242.06	-580.19	220.66	220.04	-579.38	194.77	253.36	-595.26	196.14	193.49	-452	94.665	125.29	-412.58	96.935	238.27	-359.02	72.62	178.95	-425.03	1577.9	318.85	-544.82	1307	316.53
230	0.95417	-283.18	1269.6	308.47	-361.48	1525.5	473.95	-386.94	1551.4	147.95	-362.86	1840.2	303.5	-351.48	1018.8	441.53	-344.67	1026.4	190.68	-549.82	1037.9	347.85	-546.17	1036	256.42	-434.46	934.93	496.34	-419.28	943.5	109.22	-439.6	1102.5	476.82	-437.13	1102.9	140.19	-561.22	1002.1	314.84	-381.6	713	481.5	-330.58	642.9	427.95	-396.35	627.11	455.56	-320.23	728.53	453.42	-403.09	530.37	432.79	-399.74	520.76	300.54	-492.33	294.06	416.19	-433.07	225.9	412.88	-495.69	219.48	396.82	-427.52	302.22	431.8	-451.67	121.99	391.88	-445.89	147.75	306.78	-525.89	76.008	329.95	-516.43	43.542	302.31	-518.16	48.222	367.72	-354.61	36.495	425.29	-316.11	39.985	305.44	-253.82	55.414	352.21	-329.53	721.61	101.06	-229.39	679.88	123.26	-286.72	636.46	111.8	-264.16	763.77	113.39	-259.83	554.63	119.82	-408.07	419.29	131.78	-380.31	335.27	131.09	-445.46	358.42	149.85	-347.24	396.77	117.78	-493.87	225.88	159.71	-448.89	221.64	241.95	-565.06	214.46	220.18	-563.4	188.45	253.42	-579.5	189.66	193.65	-433.82	91.989	124.85	-394.18	94.968	237.75	-340.18	72.147	178.24	-419.81	1578	318.92	-539.68	1307.2	316.78
231	0.95833	-278.04	1269.7	308.59	-356.21	1525.6	473.99	-381.89	1551.4	148	-357.56	1840.3	303.3	-346.63	1018.7	441.79	-339.3	1026.7	190.9	-544.79	1038	347.68	-540.97	1036.1	256.23	-430.04	935	496.27	-413.58	943.87	109.17	-434.51	1102.6	476.88	-431.83	1103.1	140.26	-556.09	1002.1	314.62	-378.52	712.91	481.45	-327.72	642.47	428.04	-393.66	627.09	455.46	-316.93	728.06	453.59	-401.07	530.34	432.67	-397.42	520.68	300.4	-491.35	294.42	415.96	-432.4	226.02	412.68	-494.99	219.85	396.58	-426.58	302.3	431.57	-451.35	122.12	391.76	-445.42	147.91	306.59	-525.79	76.253	329.82	-516.44	43.705	302.2	-518.05	48.452	367.62	-354.56	36.477	425.28	-315.99	39.84	305.39	-253.69	55.095	352.22	-322.55	722.58	100.85	-222.2	681.42	123.32	-279.28	637.66	111.65	-257.47	765.11	113.43	-252.04	555.74	119.89	-397.66	416.94	131.85	-367.96	333.61	131.05	-433.59	355.22	149.93	-336.34	395.85	117.74	-478.86	221.52	159.71	-433.61	218.19	241.81	-549.73	208.18	220.31	-547.22	182.09	253.46	-563.55	183.12	193.79	-415.5	89.362	124.38	-375.66	93.078	237.21	-321.26	71.777	177.49	-414.58	1578.2	318.98	-534.53	1307.3	317.01
